<svg width="800" height="49" viewBox="0 0 800 49" fill="none" xmlns="http://www.w3.org/2000/svg">
<path d="M-1 8.28882C-1 3.87054 2.58172 0.288818 7 0.288818H799C803.418 0.288818 807 3.87054 807 8.28882V40.2888C807 44.7071 803.418 48.2888 799 48.2888H7C2.58172 48.2888 -1 44.7071 -1 40.2888V8.28882Z" fill="#D7B2FF"/>
<path d="M0 8.28882C0 3.87054 3.58172 0.288818 8 0.288818H664C668.418 0.288818 672 3.87054 672 8.28882V40.2888C672 44.7071 668.418 48.2888 664 48.2888H8.00001C3.58173 48.2888 0 44.7071 0 40.2888V8.28882Z" fill="#BC80FF"/>
<path d="M-1 8.28882C-1 3.87054 2.58172 0.288818 7 0.288818H529C533.418 0.288818 537 3.87054 537 8.28882V40.2888C537 44.7071 533.418 48.2888 529 48.2888H6.99999C2.58171 48.2888 -1 44.7071 -1 40.2888V8.28882Z" fill="#A24DFF"/>
<path d="M-1 8.28882C-1 3.87054 2.58172 0.288818 7 0.288818H265C269.418 0.288818 273 3.87054 273 8.28882V40.2888C273 44.7071 269.418 48.2888 265 48.2888H7C2.58173 48.2888 -1 44.7071 -1 40.2888V8.28882Z" fill="#7A00FF"/>
</svg>
